<svg width="26" height="15" viewBox="0 0 26 15" fill="none" xmlns="http://www.w3.org/2000/svg">
<path d="M25.2704 0.698283C24.8083 0.251037 24.1832 0 23.5316 0C22.88 0 22.2549 0.251037 21.7928 0.698283L12.9383 9.19892L4.20721 0.698283C3.7451 0.251037 3.11998 0 2.46839 0C1.8168 0 1.19168 0.251037 0.729563 0.698283C0.498389 0.921516 0.314901 1.1871 0.189684 1.47972C0.0644673 1.77235 0 2.08621 0 2.40321C0 2.72021 0.0644673 3.03408 0.189684 3.3267C0.314901 3.61932 0.498389 3.88491 0.729563 4.10814L11.1872 14.2897C11.4165 14.5148 11.6893 14.6934 11.9898 14.8153C12.2904 14.9372 12.6127 15 12.9383 15C13.2639 15 13.5863 14.9372 13.8869 14.8153C14.1874 14.6934 14.4602 14.5148 14.6895 14.2897L25.2704 4.10814C25.5016 3.88491 25.6851 3.61932 25.8103 3.3267C25.9355 3.03408 26 2.72021 26 2.40321C26 2.08621 25.9355 1.77235 25.8103 1.47972C25.6851 1.1871 25.5016 0.921516 25.2704 0.698283Z" fill="#C0BAB1"/>
</svg>
