<svg width="37" height="42" viewBox="0 0 37 42" fill="none" xmlns="http://www.w3.org/2000/svg">
<path d="M25.9374 36.805V40.0518C25.9374 41.1277 25.0665 41.9999 23.9921 41.9999H1.9453C0.870929 41.9999 0 41.1277 0 40.0518V10.1817C0 9.10577 0.870929 8.23362 1.9453 8.23362H7.78122V32.2596C7.78122 34.766 9.81738 36.805 12.3203 36.805H25.9374ZM25.9374 8.88297V0.441406H12.3203C11.2459 0.441406 10.375 1.31357 10.375 2.38946V32.2596C10.375 33.3355 11.2459 34.2076 12.3203 34.2076H34.367C35.4414 34.2076 36.3123 33.3355 36.3123 32.2596V10.831H27.8827C26.8128 10.831 25.9374 9.9544 25.9374 8.88297ZM35.7426 6.36438L30.3977 1.01194C30.0329 0.646636 29.5381 0.441409 29.0222 0.441406L28.5311 0.441406V8.23362H36.3123V7.74181C36.3123 7.22518 36.1074 6.7297 35.7426 6.36438Z" fill="#736F69"/>
</svg>
