<svg width="192" height="193" viewBox="0 0 192 193" fill="none" xmlns="http://www.w3.org/2000/svg">
<path opacity="0.25" fill-rule="evenodd" clip-rule="evenodd" d="M10 96.5349C10 49.0384 48.5035 10.5349 96 10.5349C143.496 10.5349 182 49.0384 182 96.5349C182 144.031 143.496 182.535 96 182.535C48.5035 182.535 10 144.031 10 96.5349ZM96 0.534912C42.9807 0.534912 0 43.5156 0 96.5349C0 149.554 42.9807 192.535 96 192.535C149.019 192.535 192 149.554 192 96.5349C192 43.5156 149.019 0.534912 96 0.534912ZM96.6978 96.0156V62.2699C96.6978 62.2699 106.681 66.0327 112.933 63.5138C124.161 59.7771 121.673 43.5443 111.689 37.2999C101.675 32.287 95.4539 36.056 94.1789 39.7877C92.935 44.7881 90.4473 43.5443 90.4473 43.5443C90.4473 43.5443 85.4393 38.5438 82.9515 43.5443C77.5631 52.5065 70.7497 57.1793 63.6027 62.081C55.8167 67.4209 47.6347 73.0324 40.4674 84.7571C35.4906 92.2528 39.2235 100.992 45.4741 100.992C51.726 102.236 54.2138 99.7485 54.2138 99.7485L77.9448 79.7491L79.1887 109.732C79.1887 115.984 79.1887 122.234 77.9448 125.997C75.4558 140.989 59.2217 140.989 51.726 138.47C48.459 137.386 46.6159 136.065 45.1616 135.022C43.2792 133.673 42.0481 132.791 39.2235 133.493C34.2169 135.982 34.2169 150.972 46.7193 155.98C60.4656 162.231 76.6997 152.217 84.1954 138.47C92.9351 124.753 101.675 112.251 112.933 104.755C122.917 96.0156 127.923 104.755 129.167 111.007C129.468 112.21 129.769 114.291 130.141 116.86C131.307 124.921 133.168 137.794 137.911 143.478C145.399 149.728 151.656 144.722 154.144 133.493C157.9 122.234 145.399 127.242 145.399 127.242C145.399 127.242 152.9 93.4967 145.399 79.7491C137.911 64.7589 122.917 73.5284 115.421 78.5052C107.925 83.5132 96.6978 96.0156 96.6978 96.0156ZM129.167 48.5198C130.412 39.7877 134.179 32.287 134.179 32.287C142.911 37.2999 151.656 43.5442 156.656 52.2888C156.656 52.2888 149.168 57.2644 140.423 58.5332C130.412 59.7771 127.923 56.0205 129.167 48.5198Z" fill="#C0BAB1" fill-opacity="0.75"/>
</svg>
