<svg width="53" height="53" viewBox="0 0 53 53" fill="none" xmlns="http://www.w3.org/2000/svg">
<path fill-rule="evenodd" clip-rule="evenodd" d="M8 26.5C8 16.2827 16.2827 8 26.5 8C36.7173 8 45 16.2827 45 26.5C45 36.7173 36.7173 45 26.5 45C16.2827 45 8 36.7173 8 26.5ZM26.5 5C14.6259 5 5 14.6259 5 26.5C5 38.3741 14.6259 48 26.5 48C38.3741 48 48 38.3741 48 26.5C48 14.6259 38.3741 5 26.5 5ZM26.6534 26.3859V18.9692C26.6534 18.9692 28.8476 19.7962 30.2216 19.2426C32.6891 18.4214 32.1424 14.8537 29.9482 13.4813C27.7472 12.3796 26.38 13.208 26.0998 14.0281C25.8264 15.1271 25.2796 14.8537 25.2796 14.8537C25.2796 14.8537 24.179 13.7547 23.6322 14.8537C22.4479 16.8234 20.9505 17.8504 19.3797 18.9277C17.6685 20.1013 15.8703 21.3346 14.295 23.9115C13.2012 25.5589 14.0217 27.4797 15.3954 27.4797C16.7694 27.7531 17.3162 27.2063 17.3162 27.2063L22.5318 22.8108L22.8052 29.4005C22.8052 30.7745 22.8052 32.1483 22.5318 32.9753C21.9848 36.2701 18.4169 36.2701 16.7694 35.7165C16.0514 35.4782 15.6464 35.1879 15.3267 34.9588C14.913 34.6623 14.6424 34.4684 14.0217 34.6227C12.9213 35.1697 12.9213 38.4643 15.6691 39.5649C18.6902 40.9387 22.2582 38.7379 23.9056 35.7165C25.8264 32.7019 27.7472 29.9541 30.2216 28.3067C32.4158 26.3859 33.5161 28.3067 33.7895 29.6807C33.8557 29.9451 33.9218 30.4024 34.0035 30.9672C34.2597 32.7388 34.6688 35.5679 35.7111 36.8171C37.3569 38.1909 38.732 37.0905 39.2788 34.6227C40.1044 32.1483 37.3569 33.2489 37.3569 33.2489C37.3569 33.2489 39.0054 25.8323 37.3569 22.8108C35.7111 19.5163 32.4158 21.4436 30.7683 22.5375C29.1209 23.6381 26.6534 26.3859 26.6534 26.3859ZM33.7895 15.9473C34.0632 14.0281 34.891 12.3796 34.891 12.3796C36.8101 13.4813 38.732 14.8537 39.831 16.7756C39.831 16.7756 38.1853 17.8692 36.2634 18.148C34.0632 18.4214 33.5161 17.5958 33.7895 15.9473Z" fill="#C0BAB1"/>
</svg>
