<svg width="50" height="50" viewBox="0 0 50 50" fill="none" xmlns="http://www.w3.org/2000/svg">
<path d="M41.7708 12.75H8.2292C7.1361 12.75 6.25 13.6361 6.25 14.7292V14.9375C6.25 16.0306 7.1361 16.9167 8.2292 16.9167H41.7708C42.8639 16.9167 43.75 16.0306 43.75 14.9375V14.7292C43.75 13.6361 42.8639 12.75 41.7708 12.75Z" fill="white"/>
<path d="M41.7708 22.9167H8.2292C7.1361 22.9167 6.25 23.8028 6.25 24.8959V25.1042C6.25 26.1973 7.1361 27.0834 8.2292 27.0834H41.7708C42.8639 27.0834 43.75 26.1973 43.75 25.1042V24.8959C43.75 23.8028 42.8639 22.9167 41.7708 22.9167Z" fill="white"/>
<path d="M41.7708 33.0833H8.2292C7.1361 33.0833 6.25 33.9694 6.25 35.0625V35.2708C6.25 36.3639 7.1361 37.25 8.2292 37.25H41.7708C42.8639 37.25 43.75 36.3639 43.75 35.2708V35.0625C43.75 33.9694 42.8639 33.0833 41.7708 33.0833Z" fill="white"/>
</svg>
