<svg width="38" height="26" viewBox="0 0 38 26" fill="none" xmlns="http://www.w3.org/2000/svg">
<path d="M35.7708 0.75H2.2292C1.1361 0.75 0.25 1.6361 0.25 2.7292V2.9375C0.25 4.0306 1.1361 4.9167 2.2292 4.9167H35.7708C36.8639 4.9167 37.75 4.0306 37.75 2.9375V2.7292C37.75 1.6361 36.8639 0.75 35.7708 0.75Z" fill="#C0BAB1"/>
<path d="M35.7708 10.9167H2.2292C1.1361 10.9167 0.25 11.8028 0.25 12.8959V13.1042C0.25 14.1973 1.1361 15.0834 2.2292 15.0834H35.7708C36.8639 15.0834 37.75 14.1973 37.75 13.1042V12.8959C37.75 11.8028 36.8639 10.9167 35.7708 10.9167Z" fill="#C0BAB1"/>
<path d="M35.7708 21.0833H2.2292C1.1361 21.0833 0.25 21.9694 0.25 23.0625V23.2708C0.25 24.3639 1.1361 25.25 2.2292 25.25H35.7708C36.8639 25.25 37.75 24.3639 37.75 23.2708V23.0625C37.75 21.9694 36.8639 21.0833 35.7708 21.0833Z" fill="#C0BAB1"/>
</svg>
